<?xml version="1.0" encoding="utf-8"?>
<!-- Generator: Adobe Illustrator 18.1.1, SVG Export Plug-In . SVG Version: 6.00 Build 0)  -->
<svg version="1.1" id="Layer_1" xmlns="http://www.w3.org/2000/svg" xmlns:xlink="http://www.w3.org/1999/xlink" x="0px" y="0px"
	 viewBox="0 0 500 500" enable-background="new 0 0 500 500" xml:space="preserve">
<path id="N-petal" fill="#F6B744" d="M300,188c0,34.6-24.8,38.1-50,62.5c-24.8-24.5-50-28-50-62.5s9.6-37.6,50-62.5
	C289.5,151.2,300,153.5,300,188z"/>
<path id="NE-petal" fill="#EAE800" d="M329.6,241.2c-24.4,24.4-44.4,9.4-79.6,8.9c-0.2-34.8-15.6-55.2,8.8-79.6s33.3-19.8,79.6-8.9
	C348.2,207.8,354,216.8,329.6,241.2z"/>
<path id="E-petal" fill="#D4EE59" d="M312.5,300.2c-34.5,0-38-24.8-62.5-50c24.5-24.8,28-50,62.5-50s37.5,9.6,62.5,50
	C349.3,289.7,347,300.2,312.5,300.2z"/>
<path id="SE-petal" fill="#78D55E" d="M258.8,329.8c-24.4-24.4-9.4-44.4-8.9-79.6c34.8-0.2,55.1-15.6,79.6,8.8
	c24.4,24.4,19.8,33.3,8.9,79.5C292.2,348.4,283.2,354.1,258.8,329.8z"/>
<path id="S-petal" fill="#73A4DE" d="M199.9,312.5c0-34.5,24.8-38,50-62.5c24.8,24.5,50,28,50,62.5s-9.6,37.5-50,62.5
	C210.4,349.3,199.9,347,199.9,312.5z"/>
<path id="SW-petal" fill="#AB76DE" d="M170.4,258.8c24.4-24.4,44.4-9.4,79.6-8.9c0.2,34.8,15.6,55.1-8.9,79.6
	c-24.4,24.4-33.3,19.8-79.6,8.9C151.8,292.2,146,283.2,170.4,258.8z"/>
<path id="W-petal" fill="#F06AA7" d="M187.5,199.8c34.6,0,38.1,24.8,62.5,50c-24.5,24.7-28,50-62.5,50s-37.6-9.6-62.5-50
	C150.7,210.3,153,199.8,187.5,199.8z"/>
<path id="NW-petal" fill="#DE5A43" d="M241.2,170.2c24.4,24.4,9.4,44.4,8.9,79.6c-34.8,0.2-55.2,15.6-79.6-8.9s-19.8-33.3-8.9-79.6
	C207.8,151.6,216.8,145.9,241.2,170.2z"/>
</svg>
