<?xml version="1.0" encoding="utf-8"?>
<!-- Generator: Adobe Illustrator 18.1.1, SVG Export Plug-In . SVG Version: 6.00 Build 0)  -->
<svg version="1.1" xmlns="http://www.w3.org/2000/svg" xmlns:xlink="http://www.w3.org/1999/xlink" x="0px" y="0px"
	 viewBox="0 0 500 500" enable-background="new 0 0 500 500" xml:space="preserve">
<g id="Layer_1" display="none">
	<path id="N-petal" display="inline" fill="#F6B744" d="M347.8,128.2c0,67.7-48.5,74.6-97.8,122.3c-48.5-47.9-97.8-54.8-97.8-122.3
		S170.9,54.6,250,5.9C327.3,56.2,347.8,60.7,347.8,128.2z"/>
	<path id="NE-petal" display="inline" fill="#EAE800" d="M405.8,232.3C358,280,318.9,250.7,250,249.7c-0.4-68.1-30.5-108,17.2-155.8
		S332.4,55.2,423,76.5C442.2,166.9,453.5,184.5,405.8,232.3z"/>
	<path id="E-petal" display="inline" fill="#D4EE59" d="M372.3,347.7c-67.5,0-74.4-48.5-122.3-97.8c47.9-48.5,54.8-97.8,122.3-97.8
		s73.4,18.8,122.3,97.8C444.3,327.2,439.8,347.7,372.3,347.7z"/>
	<path id="SE-petal" display="inline" fill="#78D55E" d="M267.2,405.7c-47.7-47.7-18.4-86.9-17.4-155.8
		c68.1-0.4,107.8-30.5,155.8,17.2c47.7,47.7,38.7,65.2,17.4,155.6C332.6,442.1,315,453.2,267.2,405.7z"/>
	<path id="S-petal" display="inline" fill="#73A4DE" d="M152,371.8c0-67.5,48.5-74.4,97.8-122.3c48.5,47.9,97.8,54.8,97.8,122.3
		s-18.8,73.4-97.8,122.3C172.5,443.8,152,439.3,152,371.8z"/>
	<path id="SW-petal" display="inline" fill="#AB76DE" d="M94.2,266.7C142,219,181.1,248.3,250,249.3c0.4,68.1,30.5,107.8-17.4,155.8
		c-47.7,47.7-65.2,38.7-155.8,17.4C57.8,332.1,46.5,314.5,94.2,266.7z"/>
	<path id="W-petal" display="inline" fill="#F06AA7" d="M127.7,151.3c67.7,0,74.6,48.5,122.3,97.8c-47.9,48.3-54.8,97.8-122.3,97.8
		S54.1,328.2,5.4,249.1C55.7,171.8,60.2,151.3,127.7,151.3z"/>
	<path id="NW-petal" display="inline" fill="#DE5A43" d="M232.8,93.4c47.7,47.7,18.4,86.9,17.4,155.8c-68.1,0.4-108,30.5-155.8-17.4
		S55.7,166.5,77,75.9C167.4,57,185,45.8,232.8,93.4z"/>
</g>
<g id="Layer_2">
	<circle id="N-circle" fill="#F6B744" cx="250" cy="128.2" r="122.3"/>
	<circle id="NW-circle" fill="#DE5A43" cx="167.7" cy="157.9" r="122.3"/>
	<circle id="W-circle" fill="#F06AA7" cx="127.7" cy="249.1" r="122.3"/>
	<circle id="SW-circle" fill="#AB76DE" cx="158.9" cy="331.8" r="122.3"/>
	<circle id="S-circle" fill="#73A4DE" cx="250" cy="371.8" r="122.3"/>
	<circle id="SE-circle" fill="#78D55E" cx="333.6" cy="338.6" r="122.3"/>
	<circle id="NE-circle" fill="#EAE800" cx="336.3" cy="164" r="122.3"/>
	<circle id="E-circle" fill="#D4EE59" cx="372.3" cy="250.5" r="122.3"/>
</g>
</svg>
