<?xml version="1.0" encoding="utf-8"?>
<!-- Generator: Adobe Illustrator 18.1.1, SVG Export Plug-In . SVG Version: 6.00 Build 0)  -->
<svg version="1.1" xmlns="http://www.w3.org/2000/svg" xmlns:xlink="http://www.w3.org/1999/xlink" x="0px" y="0px"
	 viewBox="0 0 500 500" enable-background="new 0 0 500 500" xml:space="preserve">
<g id="Layer_1">
	<g>
		<path d="M405,93.8c-41.6-41.6-96.8-64.6-155.6-64.6c-58.8,0-114,22.9-155.6,64.6c-41.5,41.6-64.4,97-64.4,155.8
			c0,58.9,22.9,114.2,64.4,155.8C135.4,447,190.7,470,249.5,470c58.8,0,114-22.9,155.6-64.6c41.5-41.6,64.4-97,64.4-155.8
			C469.5,190.7,446.6,135.4,405,93.8z M249.5,450c-110.5,0-200-89.7-200-200.4S139,49.2,249.5,49.2s200,89.7,200,200.4
			S359.9,450,249.5,450z"/>
	</g>
	<circle cx="250" cy="90" r="20"/>
</g>
<g id="Layer_2">
</g>
</svg>
