<?xml version="1.0" encoding="utf-8"?>
<!-- Generator: Adobe Illustrator 18.1.1, SVG Export Plug-In . SVG Version: 6.00 Build 0)  -->
<svg version="1.1" id="Layer_1" xmlns="http://www.w3.org/2000/svg" xmlns:xlink="http://www.w3.org/1999/xlink" x="0px" y="0px"
	 viewBox="297.7 0 202.3 500" enable-background="new 297.7 0 202.3 500" xml:space="preserve">
<g>
	<g id="Layer_2">
		<path d="M447.6,312.8V48.5c0-27.7-22.3-50.1-50-50.1s-50,22.4-50,50.1h-0.2v264.7c-29.7,17.3-49.6,49.6-49.6,86.5
			c0,55.3,44.8,100.2,100.2,100.2s100.2-44.8,100.2-100.2C498.1,362.5,477.8,330,447.6,312.8z M397.9,489.8
			c-49.7,0-90.1-40.4-90.1-90.1c0-31.8,17.1-61.6,44.6-77.9l4.9-2.9V58.6V48.5c0-22.2,18.1-40.1,40.1-40.1c22.1,0,40.1,18,40.1,40.1
			v270.1l5,2.9c27.9,16,45.4,46,45.4,78.3C488,449.4,447.6,489.8,397.9,489.8z"/>
	</g>
	<g id="Layer_1_1_">
		<ellipse id="bulb" cx="397.9" cy="400.6" rx="75.2" ry="75.3"/>
		<circle id="temperature-top" cx="397.5" cy="145.9" r="25"/>
		<rect id="temperature-mid" x="372.5" y="145.9" width="50.1" height="194.4"/>
	</g>
</g>
</svg>
