<?xml version="1.0" encoding="utf-8"?>
<!-- Generator: Adobe Illustrator 18.1.1, SVG Export Plug-In . SVG Version: 6.00 Build 0)  -->
<svg version="1.1" id="Layer_1" xmlns="http://www.w3.org/2000/svg" xmlns:xlink="http://www.w3.org/1999/xlink" x="0px" y="0px"
	 viewBox="257.9 0 185 461.7" enable-background="new 257.9 0 185 461.7" xml:space="preserve">
<g>
	<g id="Layer_2">
		<path d="M396.3,288.8v-244c0-25.6-20.6-46.3-46.2-46.3s-46.2,20.7-46.2,46.3h-0.2v244.4c-27.4,16-45.8,45.8-45.8,79.9
			c0,51.1,41.4,92.5,92.5,92.5s92.5-41.4,92.5-92.5C442.9,334.7,424.2,304.7,396.3,288.8z M350.4,452.3c-45.9,0-83.2-37.3-83.2-83.2
			c0-29.4,15.8-56.9,41.2-71.9l4.5-2.7V54.1v-9.3c0-20.5,16.7-37,37-37c20.4,0,37,16.6,37,37v249.4l4.6,2.7
			c25.8,14.8,41.9,42.5,41.9,72.3C433.6,415,396.3,452.3,350.4,452.3z"/>
	</g>
	<g id="Layer_1_1_">
		<ellipse id="bulb" cx="350.4" cy="369.9" rx="69.4" ry="69.5"/>
		<circle id="temperature-top" cx="350" cy="134.7" r="23.1"/>
		<rect id="temperature-mid" x="326.9" y="134.7" width="46.3" height="179.5"/>
	</g>
</g>
</svg>
